<?xml version="1.0" encoding="UTF-8" standalone="no"?>
<svg width="580px" height="261px" viewBox="0 0 580 261" version="1.1" xmlns="http://www.w3.org/2000/svg" xmlns:xlink="http://www.w3.org/1999/xlink" xmlns:sketch="http://www.bohemiancoding.com/sketch/ns">
    <defs></defs>
    <g id="Page-1" stroke="none" stroke-width="1" fill="none" fill-rule="evenodd" sketch:type="MSPage">
        <g id="Group-2" sketch:type="MSLayerGroup">
            <rect id="Rectangle-1" stroke="#FFFFFF" stroke-width="6.6" sketch:type="MSShapeGroup" x="0" y="0" width="580" height="180.876147"></rect>
            <text id="Freedom" sketch:type="MSTextLayer" font-family="Lato" font-size="97.3010204" font-weight="260" sketch:alignment="middle" fill="#FFFFFF">
                <tspan x="101.552249" y="97.8027523">Freedom</tspan>
            </text>
            <text id="Noun" sketch:type="MSTextLayer" font-family="Lato" font-size="47.4" font-weight="normal" fill="#FFFFFF">
                <tspan x="236.918304" y="150.958716">Noun</tspan>
            </text>
            <path d="M375.470527,135.418984 L381.847399,129.042112 L385.240342,132.435055 L378.86347,138.811927 L385.240342,145.188798 L381.847399,148.581741 L375.470527,142.204869 L369.093656,148.581741 L365.700713,145.188798 L372.077585,138.811927 L365.700713,132.435055 L369.093656,129.042112 L375.470527,135.418984 Z" id="Rectangle-4" fill="#FFFFFF" sketch:type="MSShapeGroup"></path>
            <path d="M213.526369,135.418984 L219.903241,129.042112 L223.296183,132.435055 L216.919311,138.811927 L223.296183,145.188798 L219.903241,148.581741 L213.526369,142.204869 L207.149497,148.581741 L203.756555,145.188798 L210.133426,138.811927 L203.756555,132.435055 L207.149497,129.042112 L213.526369,135.418984 Z" id="Rectangle-6" fill="#FFFFFF" sketch:type="MSShapeGroup"></path>
        </g>
    </g>
</svg>